# xmcd CD database file
#
# Track frame offsets:
#	187
#	18055
#	35425
#	59537
#	81305
#	96825
#	118072
#	135765
#	159432
#	178702
#
# Disc length: 2589 seconds
#
# Revision: 2
# Processed by: cddbd v1.5.2PL0 Copyright (c) Steve Scherf et al.
# Submitted via: CDex 1.70beta2
#
DISCID=760a1b0a
DTITLE=LA-PPISCH - DOGS can't see COLORS
DYEAR=1998
DGENRE=Ska
TTITLE0=F5
TTITLE1=無敵のサラリーマン
TTITLE2=家-THE WEATHERCOCK-
TTITLE3=GIRL FRIEND
TTITLE4=Message To You
TTITLE5=招待状
TTITLE6=MATSURI・365
TTITLE7=DINO
TTITLE8=回送電車
TTITLE9=LOVE and PEACE
EXTD=YEAR: 1998
EXTT0=
EXTT1=
EXTT2=
EXTT3=
EXTT4=
EXTT5=
EXTT6=
EXTT7=
EXTT8=
EXTT9=
PLAYORDER=
